<svg xmlns="http://www.w3.org/2000/svg" width="1240" height="840" viewBox="0 0 1240 840">
  <defs>
    <linearGradient id="g1" x1="0" y1="0" x2="0" y2="1">
      <stop offset="0%" stop-color="#1a2752"/>
      <stop offset="100%" stop-color="#0e1731"/>
    </linearGradient>
    <style>
      .title{font:700 20px 'Inter', system-ui; fill:#e7ecff}
      .label{font:500 12px 'Inter', system-ui; fill:#9fb2ff}
      .value{font:600 12px 'Inter', system-ui; fill:#e7ecff}
      .panel{fill:url(#g1);stroke:#243159;stroke-width:1;rx:14}
      .chip{fill:#132351;stroke:#1f3a7a;stroke-width:1;rx:16}
    </style>
  </defs>

  <rect width="1240" height="840" fill="#0b1020"/>
  <text x="40" y="56" class="title">Horovod (MPI Operator) · 기존 UI</text>
  <rect x="32" y="72" width="1176" height="84" class="panel"/>
  <text x="60" y="112" class="label">분산 학습 타입</text>
  <rect x="60" y="120" width="320" height="28" rx="8" fill="#0d152c" stroke="#243159"/>
  <text x="72" y="139" class="value">Horovod (MPI Operator)</text>

  <!-- Launcher / 구성 -->
  <rect x="32" y="172" width="1176" height="250" class="panel"/>
  <text x="60" y="206" class="label">Launcher*</text>
  <text x="60" y="238" class="label">CPU</text>
  <rect x="120" y="226" width="420" height="8" rx="4" fill="#243159"/>
  <text x="560" y="232" class="value">0 Core</text>
  <text x="60" y="274" class="label">MEM</text>
  <rect x="120" y="262" width="420" height="8" rx="4" fill="#243159"/>
  <text x="560" y="268" class="value">0.0 GB</text>

  <text x="740" y="206" class="label">분산 학습 구성*</text>
  <text x="740" y="238" class="label">Worker 개수</text>
  <rect x="840" y="222" width="120" height="28" rx="8" fill="#0d152c" stroke="#243159"/>
  <text x="848" y="241" class="value">2</text>

  <!-- Worker -->
  <rect x="32" y="434" width="1176" height="210" class="panel"/>
  <text x="60" y="468" class="label">Worker*</text>
  <text x="60" y="504" class="label">GPU</text>
  <rect x="120" y="492" width="300" height="8" rx="4" fill="#243159"/>
  <text x="430" y="498" class="value">0 개수</text>
  <text x="520" y="504" class="label">CPU</text>
  <rect x="570" y="492" width="300" height="8" rx="4" fill="#243159"/>
  <text x="880" y="498" class="value">0.0 Core</text>
  <text x="60" y="544" class="label">MEM</text>
  <rect x="120" y="532" width="300" height="8" rx="4" fill="#243159"/>
  <text x="430" y="538" class="value">0.0 GB</text>

  <!-- Image -->
  <rect x="32" y="656" width="1176" height="128" class="panel"/>
  <text x="60" y="690" class="label">이미지*</text>
  <rect x="118" y="672" width="280" height="28" class="chip"/>
  <text x="140" y="691" class="value">Built-in Image</text>
  <rect x="420" y="672" width="360" height="28" rx="8" fill="#0d152c" stroke="#243159"/>
  <text x="432" y="691" class="value">torch1.12.1-horovod-cuda11.3</text>
</svg>


